<svg width="181" height="31" viewBox="0 0 181 31" fill="none" xmlns="http://www.w3.org/2000/svg">
<path d="M6.75585 25H2.1112V4.06391C2.1112 1.60084 3.30755 0.369309 5.70025 0.369309H18.1212C20.3262 0.369309 21.8979 1.02613 22.8362 2.33976C23.7979 3.62994 24.2788 5.56521 24.2788 8.14557C24.2788 13.6347 22.3787 16.3793 18.5786 16.3793H16.1155V16.5552L24.7714 25H18.7897L10.8375 17.0126C10.0634 16.1916 9.67634 15.4996 9.67634 14.9366V14.3736C9.67634 13.8575 9.85228 13.447 10.2041 13.1421C10.5795 12.8371 11.0955 12.6847 11.7524 12.6847H16.5377C17.7341 12.6847 18.5199 12.3211 18.8953 11.5939C19.294 10.8667 19.4934 9.71724 19.4934 8.14557C19.4934 6.64427 19.2589 5.58867 18.7897 4.97877C18.344 4.36886 17.4174 4.06391 16.0099 4.06391H8.51518C7.81145 4.06391 7.34229 4.1812 7.10771 4.41578C6.87314 4.65036 6.75585 5.11951 6.75585 5.82325V25ZM45.9318 21.3054V25H29.7811C27.3884 25 26.1921 23.7685 26.1921 21.3054V4.06391C26.1921 1.60084 27.3884 0.369309 29.7811 0.369309H45.7911V4.06391H32.5961C31.8923 4.06391 31.4232 4.1812 31.1886 4.41578C30.954 4.65036 30.8367 5.11951 30.8367 5.82325V10.5735H45.4392V14.2681H30.8367V19.5461C30.8367 20.2498 30.954 20.719 31.1886 20.9535C31.4232 21.1881 31.8923 21.3054 32.5961 21.3054H45.9318Z" fill="#FAF9F6"/>
<path d="M90.0891 19.4757L94.6634 2.62126C94.7338 2.31631 94.8159 2.04654 94.9097 1.81196C95.027 1.57739 95.2029 1.31935 95.4375 1.03786C95.6955 0.732906 96.0474 0.498328 96.4931 0.334123C96.9388 0.169919 97.4666 0.087817 98.0765 0.087817C99.9062 0.087817 101.044 0.932297 101.49 2.62126L106.064 19.4757C106.181 19.8745 106.357 20.0739 106.592 20.0739C106.85 20.0739 107.037 19.8276 107.155 19.3349L112.046 0.369309H116.761L110.814 21.8332C110.486 23.0061 110.063 23.874 109.547 24.437C109.031 25 108.128 25.2815 106.838 25.2815C105.571 25.2815 104.668 25.0117 104.129 24.4722C103.589 23.9092 103.179 23.1234 102.897 22.1147L98.5691 6.17512C98.4753 5.72942 98.3228 5.50657 98.1117 5.50657C97.924 5.50657 97.7598 5.72942 97.6191 6.17512L93.2559 22.1147C92.9744 23.1468 92.5639 23.9327 92.0244 24.4722C91.5083 25.0117 90.6169 25.2815 89.3502 25.2815C88.06 25.2815 87.1452 25 86.6056 24.437C86.0661 23.8506 85.6439 22.9826 85.3389 21.8332L79.4276 0.369309H84.1426L89.0335 19.3349C89.1743 19.8276 89.3502 20.0739 89.5613 20.0739C89.749 20.0739 89.9249 19.8745 90.0891 19.4757ZM112.47 25L121.759 2.86757C122.205 1.81196 122.709 1.08477 123.272 0.685989C123.859 0.287208 124.703 0.087817 125.806 0.087817C126.861 0.087817 127.682 0.298937 128.269 0.721176C128.879 1.11996 129.407 1.83542 129.852 2.86757L139.142 25H134.251L131.717 18.772H119.859L117.361 25H112.47ZM125.102 5.43619L121.056 15.4644H130.521L126.51 5.43619C126.252 4.75592 126.017 4.41578 125.806 4.41578C125.595 4.41578 125.36 4.75592 125.102 5.43619ZM138.097 0.369309L145.451 20.2498C145.451 20.2733 145.474 20.3319 145.521 20.4257C145.568 20.4961 145.603 20.5547 145.627 20.6017C145.674 20.6251 145.721 20.6603 145.768 20.7072C145.838 20.7541 145.908 20.7776 145.979 20.7776C146.049 20.7776 146.108 20.7541 146.155 20.7072C146.225 20.6603 146.272 20.6251 146.295 20.6017C146.342 20.5547 146.389 20.4961 146.436 20.4257C146.483 20.3319 146.507 20.2733 146.507 20.2498L153.861 0.369309H158.892L149.955 22.6073C149.251 24.3901 147.926 25.2815 145.979 25.2815C144.032 25.2815 142.706 24.3901 142.003 22.6073L133.065 0.369309H138.097ZM179.482 21.3054V25H163.331C160.938 25 159.742 23.7685 159.742 21.3054V4.06391C159.742 1.60084 160.938 0.369309 163.331 0.369309H179.341V4.06391H166.146C165.442 4.06391 164.973 4.1812 164.739 4.41578C164.504 4.65036 164.387 5.11951 164.387 5.82325V10.5735H178.989V14.2681H164.387V19.5461C164.387 20.2498 164.504 20.719 164.739 20.9535C164.973 21.1881 165.442 21.3054 166.146 21.3054H179.482Z" fill="#FAF9F6"/>
<rect x="53.0932" y="1.45744" width="21.7576" height="21.7576" rx="4.78872" stroke="#FAF9F6" stroke-width="2.91488"/>
<path d="M56.8786 12.951C56.5117 12.7028 56.5117 12.1624 56.8786 11.9142L62.7875 7.91665C63.2032 7.63545 63.7642 7.93323 63.7642 8.43508L63.7642 16.4302C63.7642 16.932 63.2032 17.2298 62.7875 16.9486L56.8786 12.951Z" fill="#FAF9F6"/>
<path d="M63.8532 12.951C63.4863 12.7028 63.4863 12.1624 63.8532 11.9142L69.7621 7.91665C70.1778 7.63545 70.7388 7.93323 70.7388 8.43508L70.7388 16.4302C70.7388 16.932 70.1778 17.2298 69.7621 16.9486L63.8532 12.951Z" fill="#FAF9F6"/>
</svg>
